<svg width="22" height="22" viewBox="0 0 22 22" fill="none" xmlns="http://www.w3.org/2000/svg">
<g filter="url(#filter0_ii_1317_493)">
<rect x="2" y="2" width="19" height="19" rx="2" fill="url(#paint0_linear_1317_493)"/>
</g>
<rect x="1.5" y="1.5" width="20" height="20" rx="2.5" stroke="white"/>
<rect x="2.5" y="2.5" width="18" height="18" rx="1.5" stroke="url(#paint1_linear_1317_493)" stroke-opacity="0.5" style="mix-blend-mode:color-burn"/>
<g filter="url(#filter1_f_1317_493)">
<rect x="4" y="4" width="1" height="15" fill="url(#paint2_linear_1317_493)"/>
<rect x="4" y="5" width="1" height="15" transform="rotate(-90 4 5)" fill="url(#paint3_linear_1317_493)"/>
<rect x="3" y="3" width="2" height="2" fill="white"/>
</g>
<path d="M12.2339 13.8623H10.1172C10.1117 13.5579 10.1089 13.3726 10.1089 13.3062C10.1089 12.62 10.2223 12.0555 10.4492 11.6128C10.6761 11.1701 11.1299 10.672 11.8105 10.1187C12.4912 9.56527 12.8979 9.2028 13.0308 9.03125C13.2355 8.76009 13.3379 8.46126 13.3379 8.13477C13.3379 7.68099 13.1553 7.29362 12.79 6.97266C12.4303 6.64616 11.9434 6.48291 11.3291 6.48291C10.737 6.48291 10.2417 6.65169 9.84326 6.98926C9.44482 7.32682 9.1709 7.84147 9.02148 8.5332L6.87988 8.26758C6.94076 7.27702 7.36133 6.43587 8.1416 5.74414C8.92741 5.05241 9.95671 4.70654 11.2295 4.70654C12.5687 4.70654 13.634 5.05794 14.4253 5.76074C15.2166 6.45801 15.6123 7.27148 15.6123 8.20117C15.6123 8.71582 15.4657 9.2028 15.1724 9.66211C14.8846 10.1214 14.2648 10.7467 13.313 11.5381C12.8205 11.9476 12.5133 12.2769 12.3916 12.5259C12.2754 12.7749 12.2228 13.2204 12.2339 13.8623ZM10.1172 17V14.6675H12.4497V17H10.1172Z" fill="white"/>
<defs>
<filter id="filter0_ii_1317_493" x="-1" y="-2" width="31" height="26" filterUnits="userSpaceOnUse" color-interpolation-filters="sRGB">
<feFlood flood-opacity="0" result="BackgroundImageFix"/>
<feBlend mode="normal" in="SourceGraphic" in2="BackgroundImageFix" result="shape"/>
<feColorMatrix in="SourceAlpha" type="matrix" values="0 0 0 0 0 0 0 0 0 0 0 0 0 0 0 0 0 0 127 0" result="hardAlpha"/>
<feOffset dx="10" dy="2"/>
<feGaussianBlur stdDeviation="4"/>
<feComposite in2="hardAlpha" operator="arithmetic" k2="-1" k3="1"/>
<feColorMatrix type="matrix" values="0 0 0 0 1 0 0 0 0 1 0 0 0 0 1 0 0 0 0.33 0"/>
<feBlend mode="normal" in2="shape" result="effect1_innerShadow_1317_493"/>
<feColorMatrix in="SourceAlpha" type="matrix" values="0 0 0 0 0 0 0 0 0 0 0 0 0 0 0 0 0 0 127 0" result="hardAlpha"/>
<feOffset dx="-2" dy="-3"/>
<feGaussianBlur stdDeviation="2.5"/>
<feComposite in2="hardAlpha" operator="arithmetic" k2="-1" k3="1"/>
<feColorMatrix type="matrix" values="0 0 0 0 0.0313726 0 0 0 0 0.266667 0 0 0 0 0.764706 0 0 0 1 0"/>
<feBlend mode="normal" in2="effect1_innerShadow_1317_493" result="effect2_innerShadow_1317_493"/>
</filter>
<filter id="filter1_f_1317_493" x="0" y="0" width="22" height="22" filterUnits="userSpaceOnUse" color-interpolation-filters="sRGB">
<feFlood flood-opacity="0" result="BackgroundImageFix"/>
<feBlend mode="normal" in="SourceGraphic" in2="BackgroundImageFix" result="shape"/>
<feGaussianBlur stdDeviation="1.5" result="effect1_foregroundBlur_1317_493"/>
</filter>
<linearGradient id="paint0_linear_1317_493" x1="11.5" y1="2" x2="11.5" y2="21" gradientUnits="userSpaceOnUse">
<stop offset="0.33" stop-color="#245FF5"/>
<stop offset="0.66" stop-color="#256BF8"/>
</linearGradient>
<linearGradient id="paint1_linear_1317_493" x1="2" y1="2" x2="21" y2="21" gradientUnits="userSpaceOnUse">
<stop stop-color="#004CFF"/>
<stop offset="0.5" stop-color="#0047EE"/>
<stop offset="1" stop-color="#00174E"/>
</linearGradient>
<linearGradient id="paint2_linear_1317_493" x1="4.5" y1="4" x2="4.5" y2="19" gradientUnits="userSpaceOnUse">
<stop stop-color="white"/>
<stop offset="1" stop-color="white" stop-opacity="0"/>
</linearGradient>
<linearGradient id="paint3_linear_1317_493" x1="4.5" y1="5" x2="4.5" y2="20" gradientUnits="userSpaceOnUse">
<stop stop-color="white"/>
<stop offset="1" stop-color="white" stop-opacity="0"/>
</linearGradient>
</defs>
</svg>
